Simulation
nRows=49
nColumns=15
endheader
time  TH_x TH_y TH_z SC_y  SC_z  SC_x  AC_y  AC_z  AC_x  GH_y  GH_z  GH_yy  EL_x  PS_y
1.95  0.000000  0.000000  0.000000  -29.737563316052558  9.633318389439738  22.429692288249374  56.81407453483369  10.293970134376401  1.6667278632905997  52.658625126160445  61.04144709341097  -42.63022350660023  22.3701987958973  0.000000
1.989  0.000000  0.000000  0.000000  -29.5445970224308  9.194416241800406  21.65599073721165  56.82867604604904  10.13738493022309  1.2202259285929662  52.70083711635142  60.15513381465261  -41.7116300529473  22.57011027264502  0.000000
2.028  0.000000  0.000000  0.000000  -29.331783969096907  8.716306858695981  20.819564155525224  56.82189257236606  9.986300285454718  0.7745895920388379  52.776588249979106  59.11186327509608  -40.827227251469616  22.77044414266589  0.000000
2.067  0.000000  0.000000  0.000000  -29.10533632625868  8.211213285902105  19.938791672783506  56.79394803573227  9.840862094333856  0.34412159409698856  52.88596465548518  57.90961462369556  -39.99465396419096  22.960673163470677  0.000000
2.106  0.000000  0.000000  0.000000  -28.85561908077157  7.683449105709892  19.01669579426299  56.747665180290056  9.698746790717998  -0.06382891815802731  52.991565935513236  56.56786592370067  -39.16189435404917  23.125406230403204  0.000000
2.145  0.000000  0.000000  0.000000  -28.568082135286687  7.133614312770485  18.0502761164868  56.68811782088401  9.5581709131085  -0.44351765278333594  53.0344186728911  55.11734743773346  -38.240600849368136  23.248334121375805  0.000000
2.184  0.000000  0.000000  0.000000  -28.236542149640485  6.561979442655103  17.03921441322839  56.61886864175408  9.419836432358323  -0.7900617408691816  52.96602904080678  53.587205781235994  -37.16534486845541  23.32145502592551  0.000000
2.223  0.000000  0.000000  0.000000  -27.87717993981433  5.970849569605321  15.990269923782941  56.542640016548624  9.2864831318242  -1.0980133906779275  52.77105486971502  51.99737182332184  -35.927736773702975  23.354957023857782  0.000000
2.262  0.000000  0.000000  0.000000  -27.5232333704762  5.366088443266231  14.917346361653639  56.46057975814188  9.159062148761196  -1.3624727743272835  52.464150635666805  50.357142350547065  -34.56758428465526  23.372727338391233  0.000000
2.301  0.000000  0.000000  0.000000  -27.20549938034545  4.7527888853597045  13.838006345062825  56.373360443980154  9.034992422628465  -1.5840557205604489  52.06234234372464  48.669480172982475  -33.127175257767256  23.396779812902032  0.000000
2.34  0.000000  0.000000  0.000000  -26.93653248188168  4.13721773894898  12.76506694529946  56.27488943549932  8.909344671582136  -1.767377253288664  51.56567167243796  46.93440351467344  -31.611967184934567  23.446683016452027  0.000000
2.379  0.000000  0.000000  0.000000  -26.707798883703152  3.529270271499665  11.705033505389977  56.15261128518171  8.777952520337161  -1.918545136713573  50.952531896969504  45.152545132574744  -29.978430470554287  23.54303060369849  0.000000
2.418  0.000000  0.000000  0.000000  -26.49959771248872  2.936805076610533  10.65980427896696  55.991873644235966  8.637027126627563  -2.0458692586321487  50.18699199171531  43.33096872089482  -28.15838050091871  23.701722501829618  0.000000
2.457  0.000000  0.000000  0.000000  -26.299389915176107  2.3663437232120517  9.632067827035666  55.78233077087384  8.483829005849051  -2.156529902435616  49.22840333328508  41.48039735089785  -26.081282235325414  23.93563941098122  0.000000
2.496  0.000000  0.000000  0.000000  -26.11200416417791  1.8225258635854371  8.628438698364802  55.52132338775267  8.315524627522478  -2.2549588044655633  48.04332218288085  39.61380002064423  -23.704688477756974  24.253776841349218  0.000000
2.535  0.000000  0.000000  0.000000  -25.958447891487086  1.3076620116174458  7.657398445331443  55.21372036439035  8.128544973572685  -2.3420623626127193  46.60942308250013  37.74796001163917  -21.019859950360946  24.66000935508983  0.000000
2.574  0.000000  0.000000  0.000000  -25.85605854034467  0.8266859547744999  6.726887454125596  54.86612608825764  7.921951722161973  -2.4169547296219256  44.91328032296634  35.89789983646301  -18.036594484537787  25.152471135940203  0.000000
2.613  0.000000  0.000000  0.000000  -25.804282547875662  0.3838700056428315  5.84016063946298  54.48859465254009  7.698010874190246  -2.475705537719855  42.947706702379534  34.0761976831834  -14.792045772267468  25.706813916091715  0.000000
2.652  0.000000  0.000000  0.000000  -25.78671490363524  -0.019543737713499133  4.99519908284568  54.09445488506976  7.46347455408615  -2.512747361841955  40.715549951422176  32.29162270362099  -11.350330812035631  26.27420389549833  0.000000
2.691  0.000000  0.000000  0.000000  -25.786964778549173  -0.3811017237773565  4.188957630918046  53.69645339541257  7.228068945106078  -2.521980746803176  38.23367558718683  30.546598134148365  -7.786395360658524  26.79994021954881  0.000000
2.73  0.000000  0.000000  0.000000  -25.797232009740657  -0.6975010693512717  3.4220985872324112  53.29858271525917  7.002937802033392  -2.5051487095830605  35.543836739774704  28.8397319032618  -4.174566261950327  27.240021955630954  0.000000
2.769  0.000000  0.000000  0.000000  -25.820434455878083  -0.9629957370828816  2.7024784132740827  52.89120751638655  6.796885866507319  -2.475694013183636  32.71884862418026  27.16872084184997  -0.5816357606025327  27.56922193915087  0.000000
2.808  0.000000  0.000000  0.000000  -25.867673599577913  -1.1686786078982274  2.045261914230342  52.45434663310577  6.611358685160883  -2.4579832762495766  29.863869461385235  25.532329831317043  2.921126485106556  27.77617596512431  0.000000
2.847  0.000000  0.000000  0.000000  -25.947760792280796  -1.3078506825281502  1.4698891621913468  51.96695019273425  6.440212591864216  -2.482599199727403  27.094059572973666  23.930825896114577  6.2619804660267855  27.856682372046432  0.000000
2.886  0.000000  0.000000  0.000000  -26.05804966763587  -1.3779897465913515  0.9970972195685739  51.41010392322018  6.271651302774983  -2.5806282546098265  24.508680271082458  22.365261088619942  9.37944055700775  27.817243492890768  0.000000
2.925  0.000000  0.000000  0.000000  -26.189592776668093  -1.3775767797823832  0.6474532146774536  50.775659205964466  6.091125362153026  -2.7805397633899513  22.167178232116985  20.839474001986236  12.240171195833904  27.67536381252235  0.000000
2.964  0.000000  0.000000  0.000000  -26.329211171701346  -1.308610090885174  0.4350310226143246  50.06989823290465  5.887009262109963  -3.102131874927279  20.071732927322728  19.362236960346557  14.848969468704734  27.453342504473817  0.000000
3.003  0.000000  0.000000  0.000000  -26.46925724239031  -1.1799633420818785  0.36199672580024145  49.32965311618622  5.651181687823942  -3.5425708831235116  18.15585116752546  17.949886672169765  17.256174189456058  27.182954773591216  0.000000
3.042  0.000000  0.000000  0.000000  -26.603794445680883  -1.0163819136249592  0.4156055120630573  48.64394257348224  5.378713726430761  -4.079399235413634  16.30168476229599  16.628111479901253  19.53146561265223  26.899639708182917  0.000000
3.081  0.000000  0.000000  0.000000  -26.725644192434434  -0.8663079817887535  0.5817673509543518  48.10525296582829  5.073224648969496  -4.654262608025994  14.275235962705908  15.407771151477622  21.846991007592095  26.63304744484584  0.000000
3.12  0.000000  0.000000  0.000000  -26.835951020588592  -0.7711740572181557  0.8488249831570859  47.7491473915809  4.744880511201369  -5.182612107555848  11.792183381780696  14.281432752863372  24.435682158365044  26.400047268982977  0.000000
3.159  0.000000  0.000000  0.000000  -26.94145441206697  -0.7318008851716175  1.1977471193278066  47.54404061948199  4.409469839986631  -5.603545619244138  8.735692405972182  13.241743269211455  27.38768683016447  26.200563205836158  0.000000
3.198  0.000000  0.000000  0.000000  -27.047775103724067  -0.7159695149558382  1.5909499804448552  47.437050048829576  4.095160631035036  -5.9202341971143735  5.332016291223727  12.290448556907318  30.464814640986912  26.02647130992937  0.000000
3.237  0.000000  0.000000  0.000000  -27.162829137983326  -0.6778559203294364  1.9844963309017447  47.38819831093441  3.8263754520304274  -6.171635289399212  2.101968262776771  11.426530973153142  33.146294797690004  25.875295943634338  0.000000
3.276  0.000000  0.000000  0.000000  -27.281854075968525  -0.5914507036312205  2.3569738756251626  47.361770863221054  3.609535632594294  -6.387187384496243  -0.4585176493802815  10.636714629902853  34.950581909314  25.756989078608683  0.000000
3.315  0.000000  0.000000  0.000000  -27.386009634899775  -0.4761253809036273  2.7107082150041437  47.35016491050392  3.4370409388981065  -6.576523572796412  -2.1800308091018543  9.921538426612164  35.724243665775155  25.680480417025507  0.000000
3.354  0.000000  0.000000  0.000000  -27.459197397788234  -0.3722124371137399  3.0529604752050203  47.374314992430406  3.2955633544827583  -6.726497466564497  -3.212663352458244  9.298641338312082  35.63089208705691  25.650145329788764  0.000000
3.393  0.000000  0.000000  0.000000  -27.50189215343213  -0.3086514666358623  3.384364050474164  47.45583244184532  3.1727623390719644  -6.809920320841351  -3.8431455607471907  8.786869044637765  34.98059032453218  25.66707209254827  0.000000
3.432  0.000000  0.000000  0.000000  -27.528609464640123  -0.29591763801720244  3.6903334073704412  47.60356617680772  3.069749930318569  -6.8186179212542735  -4.24876518994838  8.39152286675435  33.9827251831097  25.734383751820303  0.000000
3.471  0.000000  0.000000  0.000000  -27.561693715669634  -0.32845389560143595  3.9475924229444423  47.81244843756467  2.996959193535932  -6.762179783100564  -4.471845569080054  8.106566898279437  32.73490752014058  25.851261994312797  0.000000
3.51  0.000000  0.000000  0.000000  -27.61633255891662  -0.3940097084361534  4.136538358928728  48.06113591742921  2.9680559145740153  -6.659043619083715  -4.462042310022262  7.915260161630819  31.257696995690356  26.021004172574138  0.000000
3.549  0.000000  0.000000  0.000000  -27.69609831390621  -0.4758924736504591  4.253642506310539  48.32495378897729  2.9844685836811964  -6.519982138458578  -4.13873375835379  7.799987347949356  29.560378789235536  26.232612815838657  0.000000
3.588  0.000000  0.000000  0.000000  -27.785978660390697  -0.5619870327779837  4.310600796490463  48.583418747821256  3.0436496592307924  -6.359690324709586  -3.4987224416540967  7.74467650499644  27.73369115152551  26.47412747241692  0.000000
3.627  0.000000  0.000000  0.000000  -27.866973875971397  -0.6423411374742862  4.312629683182035  48.83357446936069  3.1456524618558697  -6.181367857003814  -2.6149753971656082  7.742359596133303  25.930860025034246  26.71584757192619  0.000000
3.666  0.000000  0.000000  0.000000  -27.92521837472907  -0.707006303763722  4.283389693339602  49.06212121607715  3.2806382170490274  -5.994790264410569  -1.6394972961830532  7.7795929509807005  24.33974042455348  26.945422851044672  0.000000
3.705  0.000000  0.000000  0.000000  -27.960680494430456  -0.7517120645944417  4.240711042186459  49.27260969697765  3.437732938151096  -5.821025925656363  -0.5980285677756207  7.841692927776888  22.96289992379954  27.14702801201897  0.000000
3.7439999999999998  0.000000  0.000000  0.000000  -27.975012479944475  -0.7748700652746674  4.204051591141504  49.439170792977606  3.6086845079061804  -5.675775420807305  0.42713072417160003  7.889450234590502  21.809870917329672  27.32596723306847  0.000000
3.783  0.000000  0.000000  0.000000  -27.984879761721704  -0.7863941231133498  4.162186680423105  49.572528282614776  3.79401666627745  -5.577041585283324  1.5224826753638228  7.884661096573777  20.71474259925238  27.47714712557931  0.000000
3.822  0.000000  0.000000  0.000000  -27.98347629681528  -0.7981328857840934  4.096818626541192  49.647706048471136  3.9780239953665277  -5.519003337459437  2.7146652051998106  7.760149950893474  19.564138330002148  27.606038206601614  0.000000
